@startuml
title Visitor - clases
interface DocumentElement {
  +accept(visitor: Visitor)
}
class Paragraph {
  +accept(visitor)
  +text(): String
}
class Image {
  +accept(visitor)
  +path(): String
}
interface Visitor {
  +visit(paragraph: Paragraph)
  +visit(image: Image)
}
class PlainTextExportVisitor
DocumentElement <|.. Paragraph
DocumentElement <|.. Image
Visitor <|.. PlainTextExportVisitor
Paragraph ..> Visitor : accept llama visit(this)
Image ..> Visitor : accept llama visit(this)
@enduml

@startuml
title Visitor - interaccion
participant Client
participant Paragraph
participant PlainTextExportVisitor
Client -> Paragraph : accept(visitor)
Paragraph -> PlainTextExportVisitor : visit(this)
PlainTextExportVisitor --> Client : operacion aplicada
@enduml
